<?xml version="1.0" encoding="UTF-8" standalone="no"?>
<svg
   xmlns:dc="http://purl.org/dc/elements/1.1/"
   xmlns:cc="http://creativecommons.org/ns#"
   xmlns:rdf="http://www.w3.org/1999/02/22-rdf-syntax-ns#"
   xmlns:svg="http://www.w3.org/2000/svg"
   xmlns="http://www.w3.org/2000/svg"
   xmlns:sodipodi="http://sodipodi.sourceforge.net/DTD/sodipodi-0.dtd"
   xmlns:inkscape="http://www.inkscape.org/namespaces/inkscape"
   version="1.1"
   id="svg2"
   xml:space="preserve"
   width="483.21332"
   height="483.23999"
   viewBox="0 0 483.21332 483.23999"
   sodipodi:docname="MV5BMjEzMzg4MDkwN15BMl5BZXBzXkFtZTgwNDExNDQ2OTE@._V1_.eps"><metadata
     id="metadata8"><rdf:RDF><cc:Work
         rdf:about=""><dc:format>image/svg+xml</dc:format><dc:type
           rdf:resource="http://purl.org/dc/dcmitype/StillImage" /></cc:Work></rdf:RDF></metadata><defs
     id="defs6" /><sodipodi:namedview
     pagecolor="#ffffff"
     bordercolor="#666666"
     borderopacity="1"
     objecttolerance="10"
     gridtolerance="10"
     guidetolerance="10"
     inkscape:pageopacity="0"
     inkscape:pageshadow="2"
     inkscape:window-width="640"
     inkscape:window-height="480"
     id="namedview4" /><g
     id="g10"
     inkscape:groupmode="layer"
     inkscape:label="ink_ext_XXXXXX"
     transform="matrix(1.3333333,0,0,-1.3333333,0,483.24)"><g
       id="g12"
       transform="scale(0.1)"><path
         d="M 3379.3,3624.3 H 244.844 C 111.797,3615.47 8.75,3511.96 0.15625,3383.36 L 0,244.852 C 8.90625,112.578 107.656,11.8789 235,0.390625 237.266,0.078125 239.531,0 241.797,0 H 3382.42 c 2.19,0 4.38,0.078125 6.64,0.320313 C 3520.86,11.8789 3624.14,125.16 3624.14,258.281 V 3366.1 c 0,134.61 -105.08,247.89 -239.22,257.89 -1.87,0.15 -3.67,0.31 -5.62,0.31 v 0"
         style="fill:#e5b922;fill-opacity:1;fill-rule:nonzero;stroke:none"
         id="path14" /><path
         d="M 436.328,2376.88 V 1264.85 H 724.063 V 2376.88 H 436.328"
         style="fill:#010101;fill-opacity:1;fill-rule:evenodd;stroke:none"
         id="path16" /><path
         d="m 1336.41,2376.88 -66.49,-520.24 -41.01,282.66 c -12.27,91.17 -23.52,170 -34.85,237.58 H 821.406 V 1264.85 h 251.874 l 1.02,734.22 105.47,-734.22 h 179.21 l 101.33,750.62 v -750.62 h 250.94 v 1112.03 h -374.84"
         style="fill:#010101;fill-opacity:1;fill-rule:evenodd;stroke:none"
         id="path18" /><path
         d="m 2160.86,2176.17 c 11.17,-6.09 18.36,-16.32 21.41,-30.7 4.14,-14.37 5.15,-47.11 5.15,-97.26 v -431.1 c 0,-73.75 -5.15,-118.83 -14.37,-135.23 -9.22,-17.42 -34.85,-25.63 -75.78,-25.63 v 730.24 c 30.78,0 52.18,-3.13 63.59,-10.32 z m -3.2,-911.32 c 68.59,0 120.86,4.06 154.68,11.25 34.77,7.18 63.52,20.47 86.02,40 23.44,18.36 39.84,45 49.06,78.75 9.22,33.82 15.39,100.47 15.39,199.76 v 390.08 c 0,105.47 -4.06,176.17 -11.17,211.95 -6.17,35.86 -21.64,68.68 -47.19,97.27 -25.62,29.76 -63.43,50.16 -112.65,63.59 -48.13,12.19 -128.99,19.38 -267.19,19.38 H 1809.53 V 1264.85 h 348.13"
         style="fill:#010101;fill-opacity:1;fill-rule:evenodd;stroke:none"
         id="path20" /><path
         d="m 2933.83,1534.07 c 0,-53.21 -2.97,-86.96 -8.2,-101.25 -5,-14.38 -28.6,-21.57 -46.02,-21.57 -16.41,0 -28.67,7.19 -33.75,20.39 -6.25,13.44 -9.22,45.16 -9.22,94.22 v 293.99 c 0,50.23 2.97,81.95 8.2,94.22 5.08,12.18 16.41,18.43 32.82,18.43 17.34,0 40.86,-6.25 46.95,-21.56 6.25,-14.3 9.22,-45.08 9.22,-91.09 z m -373.67,842.81 V 1264.85 h 259.06 l 17.42,70.62 c 23.52,-28.59 49.06,-50.15 77.81,-64.53 27.58,-13.28 69.61,-20.47 102.35,-20.47 46.01,0 85,11.33 117.81,35.78 32.73,23.6 54.22,52.35 63.44,85 8.2,32.82 13.36,82.03 13.36,148.6 v 312.26 c 0,66.56 -2.11,110.55 -5.16,131.1 -3.05,20.46 -11.25,41.95 -25.62,63.43 -15.4,21.57 -36.8,37.97 -64.46,50.24 -27.73,11.17 -60.47,17.42 -99.37,17.42 -32.74,0 -74.77,-7.19 -103.36,-19.45 -27.74,-13.36 -53.28,-33.75 -76.8,-60.47 v 362.5 h -276.48"
         style="fill:#010101;fill-opacity:1;fill-rule:evenodd;stroke:none"
         id="path22" /></g></g></svg>
